<svg width="48" height="48" viewBox="0 0 48 48" fill="none" xmlns="http://www.w3.org/2000/svg">
<g clip-path="url(#clip0_305_4370)">
<path d="M23.9996 30.4C27.5342 30.4 30.3996 27.5346 30.3996 24C30.3996 20.4654 27.5342 17.6 23.9996 17.6C20.465 17.6 17.5996 20.4654 17.5996 24C17.5996 27.5346 20.465 30.4 23.9996 30.4Z" fill="url(#paint0_linear_305_4370)"/>
<path d="M18 4L14.34 8H8C5.79 8 4 9.79 4 12V36C4 38.21 5.79 40 8 40H40C42.21 40 44 38.21 44 36V12C44 9.79 42.21 8 40 8H33.66L30 4H18ZM24 34C18.48 34 14 29.52 14 24C14 18.48 18.48 14 24 14C29.52 14 34 18.48 34 24C34 29.52 29.52 34 24 34Z" fill="url(#paint1_linear_305_4370)"/>
</g>
<defs>
<linearGradient id="paint0_linear_305_4370" x1="23.9996" y1="17.6" x2="23.9996" y2="30.4" gradientUnits="userSpaceOnUse">
<stop stop-color="#74747E"/>
<stop offset="1" stop-color="white"/>
</linearGradient>
<linearGradient id="paint1_linear_305_4370" x1="24" y1="4" x2="24" y2="40" gradientUnits="userSpaceOnUse">
<stop stop-color="#74747E"/>
<stop offset="1" stop-color="white"/>
</linearGradient>
<clipPath id="clip0_305_4370">
<rect width="48" height="48" fill="white"/>
</clipPath>
</defs>
</svg>
