<svg width="155" height="109" viewBox="0 0 155 109" fill="none" xmlns="http://www.w3.org/2000/svg">
<path d="M3.54688 85.4062C3.03393 85.4037 2.52951 85.2749 2.07812 85.0312C1.57913 84.7655 1.16155 84.3695 0.869886 83.8852C0.578218 83.4009 0.423383 82.8466 0.421875 82.2812V13.5312C0.42601 10.0225 1.82167 6.65873 4.3027 4.1777C6.78373 1.69667 10.1475 0.301008 13.6562 0.296872H17.1875C18.0163 0.296872 18.8112 0.626113 19.3972 1.21216C19.9833 1.79822 20.3125 2.59307 20.3125 3.42187C20.3125 4.25067 19.9833 5.04553 19.3972 5.63158C18.8112 6.21763 18.0163 6.54688 17.1875 6.54688H13.6562C11.8051 6.551 10.031 7.28818 8.72211 8.59711C7.41318 9.90604 6.676 11.6801 6.67188 13.5312V76.4375L20.0625 67.5469C20.5754 67.2022 21.1789 67.0173 21.7969 67.0156H101.781C103.635 67.0156 105.413 66.2803 106.725 64.9709C108.038 63.6615 108.777 61.8851 108.781 60.0313V13.5156C108.777 11.6618 108.038 9.88535 106.725 8.57597C105.413 7.2666 103.635 6.53124 101.781 6.53125H32.4219C31.5931 6.53125 30.7982 6.20201 30.2122 5.61596C29.6261 5.02991 29.2969 4.23505 29.2969 3.40625C29.2969 2.57745 29.6261 1.78259 30.2122 1.19654C30.7982 0.610488 31.5931 0.28125 32.4219 0.28125H101.781C105.293 0.281248 108.66 1.67508 111.145 4.15656C113.629 6.63803 115.027 10.0042 115.031 13.5156V60.0313C115.027 63.5427 113.629 66.9088 111.145 69.3903C108.66 71.8718 105.293 73.2656 101.781 73.2656H22.7031L5.28125 84.875C4.7709 85.225 4.16567 85.4103 3.54688 85.4062ZM90.2656 95.8906H86.25C85.4212 95.8906 84.6263 95.5614 84.0403 94.9753C83.4542 94.3893 83.125 93.5944 83.125 92.7656C83.125 91.9368 83.4542 91.142 84.0403 90.5559C84.6263 89.9699 85.4212 89.6406 86.25 89.6406H90.2656C91.0944 89.6406 91.8893 89.9699 92.4753 90.5559C93.0614 91.142 93.3906 91.9368 93.3906 92.7656C93.3906 93.5944 93.0614 94.3893 92.4753 94.9753C91.8893 95.5614 91.0944 95.8906 90.2656 95.8906Z" fill="url(#paint0_linear_57_1223)"/>
<path d="M151.859 108.031C151.241 108.035 150.635 107.85 150.125 107.5L132.703 95.8906H98.4687C97.6399 95.8906 96.8451 95.5614 96.259 94.9753C95.673 94.3893 95.3437 93.5944 95.3437 92.7656C95.3437 91.9368 95.673 91.142 96.259 90.5559C96.8451 89.9699 97.6399 89.6406 98.4687 89.6406H133.656C134.274 89.6423 134.878 89.8272 135.391 90.1719L148.734 99.0625V36.1406C148.734 34.2883 147.998 32.5118 146.689 31.2019C145.379 29.8921 143.602 29.1562 141.75 29.1562H115.031V60.0313C115.027 63.5427 113.629 66.9088 111.145 69.3903C108.66 71.8718 105.293 73.2656 101.781 73.2656H46.625V82.6406C46.6291 84.4917 47.3663 86.2658 48.6752 87.5748C49.9842 88.8837 51.7583 89.6209 53.6094 89.625H71.8437C72.6725 89.625 73.4674 89.9542 74.0535 90.5403C74.6395 91.1264 74.9687 91.9212 74.9687 92.75C74.9687 93.5788 74.6395 94.3737 74.0535 94.9597C73.4674 95.5458 72.6725 95.875 71.8437 95.875H53.625C50.1163 95.875 46.7508 94.4833 44.2669 92.0052C41.7829 89.5271 40.3833 86.1649 40.375 82.6562V70.1562C40.375 69.3274 40.7042 68.5326 41.2903 67.9465C41.8763 67.3605 42.6712 67.0312 43.5 67.0312H101.781C103.635 67.0312 105.413 66.2959 106.725 64.9865C108.038 63.6771 108.777 61.9007 108.781 60.0469V26.0312C108.781 25.2024 109.11 24.4076 109.697 23.8215C110.283 23.2355 111.077 22.9062 111.906 22.9062H141.75C145.259 22.9104 148.622 24.306 151.104 26.7871C153.585 29.2681 154.98 32.6319 154.984 36.1406V104.891C154.983 105.456 154.828 106.01 154.536 106.495C154.245 106.979 153.827 107.375 153.328 107.641C152.878 107.89 152.374 108.024 151.859 108.031ZM91.375 24.4688H19.8125C18.9837 24.4688 18.1888 24.1395 17.6028 23.5535C17.0167 22.9674 16.6875 22.1726 16.6875 21.3438C16.6875 20.5149 17.0167 19.7201 17.6028 19.134C18.1888 18.548 18.9837 18.2188 19.8125 18.2188H91.375C92.2038 18.2188 92.9986 18.548 93.5847 19.134C94.1707 19.7201 94.5 20.5149 94.5 21.3438C94.5 22.1726 94.1707 22.9674 93.5847 23.5535C92.9986 24.1395 92.2038 24.4688 91.375 24.4688ZM68.5 41.2813H21.8281C20.9993 41.2813 20.2045 40.952 19.6184 40.366C19.0324 39.7799 18.7031 38.9851 18.7031 38.1563C18.7031 37.3275 19.0324 36.5326 19.6184 35.9465C20.2045 35.3605 20.9993 35.0313 21.8281 35.0313H68.5C69.3288 35.0313 70.1237 35.3605 70.7097 35.9465C71.2958 36.5326 71.625 37.3275 71.625 38.1563C71.625 38.9851 71.2958 39.7799 70.7097 40.366C70.1237 40.952 69.3288 41.2813 68.5 41.2813Z" fill="url(#paint1_linear_57_1223)"/>
<path d="M60.8594 57.2344H21.7969C20.9681 57.2344 20.1732 56.9051 19.5872 56.3191C19.0011 55.733 18.6719 54.9382 18.6719 54.1094C18.6719 53.2806 19.0011 52.4857 19.5872 51.8997C20.1732 51.3136 20.9681 50.9844 21.7969 50.9844H60.8594C61.6882 50.9844 62.483 51.3136 63.0691 51.8997C63.6551 52.4857 63.9844 53.2806 63.9844 54.1094C63.9844 54.9382 63.6551 55.733 63.0691 56.3191C62.483 56.9051 61.6882 57.2344 60.8594 57.2344Z" fill="url(#paint2_linear_57_1223)"/>
<defs>
<linearGradient id="paint0_linear_57_1223" x1="57.7266" y1="0.28125" x2="57.7266" y2="95.8906" gradientUnits="userSpaceOnUse">
<stop stop-color="#74747E"/>
<stop offset="1" stop-color="#F8F8F9"/>
</linearGradient>
<linearGradient id="paint1_linear_57_1223" x1="85.8359" y1="18.2187" x2="85.8359" y2="108.031" gradientUnits="userSpaceOnUse">
<stop stop-color="#74747E"/>
<stop offset="1" stop-color="#F8F8F9"/>
</linearGradient>
<linearGradient id="paint2_linear_57_1223" x1="41.3281" y1="50.9844" x2="41.3281" y2="57.2344" gradientUnits="userSpaceOnUse">
<stop stop-color="#74747E"/>
<stop offset="1" stop-color="#F8F8F9"/>
</linearGradient>
</defs>
</svg>
