<svg width="219" height="219" viewBox="0 0 219 219" fill="none" xmlns="http://www.w3.org/2000/svg">
<path d="M101.287 7.52832L97.1812 13.0033L103.022 17.3833C58.5551 20.1721 23.6691 51.3865 17.1333 95.3131L23.9018 96.3123C29.9893 55.4003 61.0702 27.2144 102.263 24.2476L97.1812 28.0596L101.287 33.5346L114.975 23.2689C115.4 22.9502 115.745 22.5369 115.982 22.0618C116.22 21.5866 116.344 21.0627 116.344 20.5314C116.344 20.0002 116.22 19.4763 115.982 19.0011C115.745 18.526 115.4 18.1127 114.975 17.7939L101.287 7.52832Z" fill="#AAAAAA" stroke="#AAAAAA" stroke-width="4"/>
<path d="M126.609 47.9062C123.219 47.9087 119.882 48.7506 116.897 50.3568C113.911 51.963 111.37 54.2835 109.5 57.1111C107.063 53.4372 103.508 50.6453 99.3614 49.1485C95.2147 47.6517 90.6962 47.5294 86.4746 48.7997C82.2529 50.07 78.5523 52.6655 75.9202 56.2022C73.288 59.7389 71.8642 64.0289 71.8593 68.4375C71.8593 68.8344 71.8593 69.2314 71.897 69.6317C67.8855 71.0322 64.4091 73.646 61.9498 77.1108C59.4905 80.5757 58.1702 84.7198 58.1718 88.9688C58.1718 89.3657 58.1718 89.7626 58.2095 90.163C54.2009 91.5659 50.7274 94.1801 48.2699 97.6438C45.8123 101.108 44.4922 105.25 44.4922 109.497C44.4922 113.744 45.8123 117.886 48.2699 121.349C50.7274 124.813 54.2009 127.427 58.2095 128.83C58.1718 129.237 58.1718 129.634 58.1718 130.031C58.1702 134.28 59.4905 138.424 61.9498 141.889C64.4091 145.354 67.8855 147.968 71.897 149.368C71.8593 149.769 71.8593 150.166 71.8593 150.562C71.8642 154.971 73.288 159.261 75.9202 162.798C78.5523 166.334 82.2529 168.93 86.4746 170.2C90.6962 171.471 95.2147 171.348 99.3614 169.851C103.508 168.355 107.063 165.563 109.5 161.889C111.937 165.563 115.492 168.355 119.639 169.851C123.785 171.348 128.304 171.471 132.525 170.2C136.747 168.93 140.448 166.334 143.08 162.798C145.712 159.261 147.136 154.971 147.141 150.562C147.141 150.166 147.141 149.769 147.103 149.368C151.114 147.968 154.591 145.354 157.05 141.889C159.509 138.424 160.83 134.28 160.828 130.031C160.828 129.634 160.828 129.237 160.79 128.837C164.799 127.434 168.273 124.82 170.73 121.356C173.188 117.892 174.508 113.75 174.508 109.503C174.508 105.256 173.188 101.114 170.73 97.6507C168.273 94.1869 164.799 91.5727 160.79 90.1698C160.828 89.7626 160.828 89.3657 160.828 88.9688C160.83 84.7198 159.509 80.5757 157.05 77.1108C154.591 73.646 151.114 71.0322 147.103 69.6317C147.141 69.2314 147.141 68.8344 147.141 68.4375C147.135 62.9939 144.97 57.7749 141.121 53.9257C137.272 50.0765 132.053 47.9117 126.609 47.9062ZM106.078 99.4192C94.3274 100.576 85.5468 107.584 85.5468 116.344H92.3906C92.3906 111.481 98.3754 107.279 106.078 106.297V150.562C106.087 152.492 105.687 154.401 104.906 156.165C104.125 157.929 102.98 159.507 101.546 160.798C100.112 162.088 98.4213 163.061 96.585 163.652C94.7487 164.243 92.8082 164.439 90.8907 164.228C88.9732 164.017 87.1221 163.402 85.4587 162.425C83.7953 161.448 82.3572 160.131 81.2387 158.559C80.1202 156.987 79.3466 155.197 78.9686 153.305C78.5906 151.413 78.6167 149.463 79.0453 147.582C79.1452 147.131 79.1527 146.664 79.0674 146.21C78.9822 145.756 78.8058 145.324 78.5491 144.94C78.4807 144.838 78.3677 144.78 78.289 144.684C80.6448 141.312 81.9768 137.331 82.125 133.22C82.1757 131.54 81.8794 129.866 81.2548 128.305C80.6301 126.744 79.6904 125.328 78.4944 124.146L73.7482 129.073C74.2758 129.621 74.6843 130.273 74.9481 130.987C75.212 131.7 75.3254 132.461 75.2812 133.22C75.091 136.386 73.9229 139.415 71.938 141.888C69.3798 140.464 67.3548 138.246 66.1694 135.569C64.984 132.892 64.7027 129.902 65.368 127.051C65.4675 126.601 65.4749 126.135 65.39 125.682C65.3051 125.229 65.1295 124.798 64.8739 124.415C64.6182 124.031 64.2877 123.703 63.9022 123.451C63.5167 123.198 63.0842 123.026 62.6305 122.945C59.4685 122.39 56.6033 120.738 54.5388 118.28C52.4742 115.821 51.3424 112.714 51.3424 109.503C51.3424 106.293 52.4742 103.186 54.5388 100.727C56.6033 98.2689 59.4685 96.6171 62.6305 96.0623C62.6716 96.0623 62.7058 96.0247 62.7503 96.0144C67.7839 97.0102 71.8593 104.302 71.8593 112.922H78.7031C78.7031 101.164 72.9441 91.6378 65.0703 89.4444C65.0703 89.2938 65.0156 89.1193 65.0156 88.9688C65.0158 85.7579 66.1481 82.6499 68.2135 80.1914C70.2789 77.733 73.145 76.0816 76.3078 75.5276C76.3488 75.5276 76.3831 75.49 76.4275 75.4797C81.4714 76.4789 85.5468 83.7709 85.5468 92.3906H92.3906C92.3906 80.6331 86.6316 71.1066 78.7578 68.9131C78.7578 68.7626 78.7031 68.5881 78.7031 68.4375C78.7031 64.8073 80.1452 61.3259 82.7121 58.759C85.279 56.1921 88.7604 54.75 92.3906 54.75C96.0207 54.75 99.5022 56.1921 102.069 58.759C104.636 61.3259 106.078 64.8073 106.078 68.4375V99.4192ZM153.984 88.9688C153.984 89.1193 153.933 89.2904 153.93 89.4444C146.056 91.6378 140.297 101.164 140.297 112.922H147.141C147.141 104.302 151.216 97.0102 156.256 96.011C156.301 96.011 156.335 96.052 156.376 96.0589C159.538 96.6137 162.403 98.2654 164.468 100.724C166.533 103.182 167.664 106.29 167.664 109.5C167.664 112.71 166.533 115.818 164.468 118.276C162.403 120.735 159.538 122.386 156.376 122.941C155.923 123.022 155.49 123.195 155.105 123.447C154.719 123.7 154.389 124.028 154.133 124.411C153.877 124.795 153.702 125.226 153.617 125.679C153.532 126.132 153.539 126.597 153.639 127.047C154.304 129.898 154.023 132.889 152.837 135.566C151.652 138.243 149.627 140.461 147.069 141.885C145.082 139.413 143.912 136.386 143.719 133.22C143.675 132.461 143.788 131.7 144.052 130.987C144.316 130.273 144.724 129.621 145.252 129.073L140.506 124.146C139.309 125.328 138.37 126.744 137.745 128.305C137.12 129.866 136.824 131.54 136.875 133.22C137.02 137.33 138.348 141.311 140.701 144.684C140.622 144.78 140.509 144.838 140.441 144.94C140.184 145.324 140.008 145.756 139.922 146.21C139.837 146.664 139.844 147.131 139.944 147.582C140.38 149.465 140.412 151.419 140.038 153.315C139.664 155.212 138.892 157.007 137.774 158.584C136.656 160.161 135.217 161.483 133.551 162.463C131.885 163.443 130.031 164.06 128.11 164.271C126.188 164.483 124.244 164.286 122.405 163.692C120.565 163.099 118.872 162.122 117.438 160.827C116.003 159.532 114.859 157.948 114.08 156.178C113.302 154.409 112.907 152.495 112.922 150.562V136.41C120.823 134.247 126.609 124.707 126.609 112.922H119.766C119.766 120.197 116.857 126.527 112.922 128.943V68.4375C112.922 64.8073 114.364 61.3259 116.931 58.759C119.498 56.1921 122.979 54.75 126.609 54.75C130.239 54.75 133.721 56.1921 136.288 58.759C138.855 61.3259 140.297 64.8073 140.297 68.4375C140.297 68.5881 140.246 68.7592 140.242 68.9131C132.368 71.1066 126.609 80.6331 126.609 92.3906H133.453C133.453 83.7709 137.529 76.4789 142.569 75.4797C142.613 75.4797 142.648 75.5208 142.689 75.5276C145.852 76.0808 148.719 77.732 150.785 80.1905C152.851 82.649 153.984 85.7574 153.984 88.9688Z" fill="#AAAAAA" stroke="#AAAAAA" stroke-width="4"/>
<path d="M116.737 194.753L121.819 190.941L117.712 185.466L104.025 195.731C103.6 196.05 103.255 196.463 103.017 196.938C102.78 197.414 102.656 197.937 102.656 198.469C102.656 199 102.78 199.524 103.017 199.999C103.255 200.474 103.6 200.887 104.025 201.206L117.712 211.472L121.819 205.997L115.978 201.617C160.445 198.828 195.331 167.614 201.867 123.687L195.098 122.688C189.011 163.6 157.93 191.786 116.737 194.753ZM201.617 103.022C198.828 58.5551 167.614 23.6691 123.69 17.1333L122.684 23.9018C163.6 29.9756 191.786 61.0599 194.753 102.263L190.941 97.1812L185.466 101.287L195.731 114.975C196.05 115.4 196.463 115.745 196.938 115.982C197.414 116.22 197.937 116.344 198.469 116.344C199 116.344 199.524 116.22 199.999 115.982C200.474 115.745 200.887 115.4 201.206 114.975L211.472 101.287L205.997 97.1812L201.617 103.022ZM24.2474 116.737L28.0593 121.819L33.5343 117.712L23.2687 104.025C22.9361 103.621 22.5182 103.295 22.0449 103.072C21.5716 102.848 21.0546 102.732 20.5312 102.732C20.0078 102.732 19.4908 102.848 19.0175 103.072C18.5442 103.295 18.1263 103.621 17.7937 104.025L7.52808 117.712L13.0031 121.819L17.3831 115.978C20.1719 160.445 51.3862 195.331 95.3094 201.867L96.3155 195.098C55.4001 189.011 27.2141 157.926 24.2474 116.737Z" fill="#AAAAAA" stroke="#AAAAAA" stroke-width="4"/>
</svg>
