<svg width="121" height="121" viewBox="0 0 121 121" fill="none" xmlns="http://www.w3.org/2000/svg">
<path d="M55.9624 4.15942L53.6937 7.18442L56.921 9.60442C32.3523 11.1453 13.0774 28.3916 9.46631 52.6615L13.206 53.2136C16.5694 30.6093 33.7419 15.0362 56.5013 13.397L53.6937 15.5032L55.9624 18.5282L63.5249 12.8563C63.7598 12.6802 63.9503 12.4518 64.0816 12.1893C64.2129 11.9268 64.2812 11.6373 64.2812 11.3438C64.2812 11.0503 64.2129 10.7608 64.0816 10.4983C63.9503 10.2358 63.7598 10.0074 63.5249 9.8313L55.9624 4.15942Z" fill="url(#paint0_linear_639_1230)"/>
<path d="M69.9532 26.4688C68.0801 26.4701 66.2365 26.9353 64.587 27.8227C62.9375 28.7102 61.5334 29.9923 60.5001 31.5545C59.1536 29.5247 57.1895 27.9821 54.8984 27.1551C52.6073 26.3281 50.1108 26.2605 47.7783 26.9624C45.4457 27.6643 43.4011 29.0983 41.9468 31.0524C40.4925 33.0064 39.7059 35.3767 39.7032 37.8125C39.7032 38.0318 39.7032 38.2511 39.724 38.4723C37.5076 39.2461 35.5869 40.6903 34.2281 42.6046C32.8693 44.519 32.1398 46.8087 32.1407 49.1562C32.1407 49.3756 32.1407 49.5949 32.1615 49.8161C29.9467 50.5912 28.0275 52.0356 26.6697 53.9493C25.3119 55.8631 24.5825 58.1516 24.5825 60.4981C24.5825 62.8446 25.3119 65.1331 26.6697 67.0469C28.0275 68.9607 29.9467 70.405 32.1615 71.1801C32.1407 71.4051 32.1407 71.6244 32.1407 71.8438C32.1398 74.1913 32.8693 76.481 34.2281 78.3954C35.5869 80.3097 37.5076 81.7539 39.724 82.5277C39.7032 82.7489 39.7032 82.9682 39.7032 83.1875C39.7059 85.6233 40.4925 87.9936 41.9468 89.9476C43.4011 91.9017 45.4457 93.3357 47.7783 94.0376C50.1108 94.7395 52.6073 94.6719 54.8984 93.8449C57.1895 93.0179 59.1536 91.4753 60.5001 89.4455C61.8465 91.4753 63.8106 93.0179 66.1017 93.8449C68.3928 94.6719 70.8893 94.7395 73.2218 94.0376C75.5544 93.3357 77.599 91.9017 79.0533 89.9476C80.5076 87.9936 81.2942 85.6233 81.2969 83.1875C81.2969 82.9682 81.2969 82.7489 81.2761 82.5277C83.4925 81.7539 85.4133 80.3097 86.772 78.3954C88.1308 76.481 88.8603 74.1913 88.8594 71.8438C88.8594 71.6244 88.8594 71.4051 88.8386 71.1839C91.0534 70.4088 92.9726 68.9644 94.3304 67.0507C95.6882 65.1369 96.4176 62.8484 96.4176 60.5019C96.4176 58.1554 95.6882 55.8669 94.3304 53.9531C92.9726 52.0393 91.0534 50.595 88.8386 49.8199C88.8594 49.5949 88.8594 49.3756 88.8594 49.1562C88.8603 46.8087 88.1308 44.519 86.772 42.6046C85.4133 40.6903 83.4925 39.2461 81.2761 38.4723C81.2969 38.2511 81.2969 38.0318 81.2969 37.8125C81.2939 34.8049 80.0978 31.9213 77.9711 29.7946C75.8444 27.6679 72.9608 26.4718 69.9532 26.4688ZM58.6094 54.9302C52.117 55.5693 47.2657 59.4412 47.2657 64.2812H51.0469C51.0469 61.5947 54.3536 59.273 58.6094 58.7304V83.1875C58.6141 84.2533 58.3935 85.3081 57.9619 86.2827C57.5304 87.2573 56.8977 88.1297 56.1054 88.8426C55.3131 89.5555 54.379 90.0929 53.3644 90.4195C52.3498 90.7462 51.2777 90.8546 50.2182 90.7378C49.1588 90.621 48.136 90.2816 47.217 89.7418C46.2979 89.202 45.5033 88.474 44.8854 87.6056C44.2674 86.7372 43.84 85.7479 43.6311 84.7027C43.4223 83.6575 43.4367 82.58 43.6735 81.5408C43.7287 81.2916 43.7328 81.0338 43.6857 80.7829C43.6386 80.5321 43.5412 80.2934 43.3994 80.0812C43.3615 80.0245 43.2991 79.9923 43.2557 79.9394C44.5573 78.0763 45.2932 75.877 45.3751 73.6058C45.4031 72.6771 45.2394 71.7526 44.8943 70.8899C44.5491 70.0273 44.03 69.245 43.3691 68.5919L40.7468 71.3144C41.0383 71.6173 41.264 71.9772 41.4098 72.3716C41.5555 72.7659 41.6182 73.1861 41.5938 73.6058C41.4887 75.3549 40.8433 77.0282 39.7467 78.3948C38.3332 77.6082 37.2144 76.3826 36.5594 74.9035C35.9045 73.4244 35.749 71.7723 36.1167 70.197C36.1716 69.9484 36.1757 69.6912 36.1288 69.4409C36.0819 69.1906 35.9849 68.9524 35.8436 68.7405C35.7024 68.5286 35.5198 68.3475 35.3068 68.2079C35.0938 68.0683 34.8548 67.9732 34.6042 67.9283C32.8571 67.6217 31.2741 66.7091 30.1334 65.3508C28.9927 63.9926 28.3673 62.2756 28.3673 60.5019C28.3673 58.7282 28.9927 57.0112 30.1334 55.6529C31.2741 54.2947 32.8571 53.382 34.6042 53.0755C34.6269 53.0755 34.6458 53.0547 34.6703 53.049C37.4514 53.5992 39.7032 57.6281 39.7032 62.3906H43.4844C43.4844 55.8944 40.3025 50.6309 35.9522 49.419C35.9522 49.3359 35.9219 49.2394 35.9219 49.1562C35.922 47.3822 36.5477 45.665 37.6888 44.3067C38.83 42.9484 40.4135 42.0359 42.161 41.7299C42.1837 41.7299 42.2026 41.7091 42.2272 41.7034C45.0139 42.2555 47.2657 46.2844 47.2657 51.0469H51.0469C51.0469 44.5507 47.865 39.2872 43.5147 38.0753C43.5147 37.9921 43.4844 37.8957 43.4844 37.8125C43.4844 35.8068 44.2812 33.8833 45.6994 32.465C47.1177 31.0468 49.0412 30.25 51.0469 30.25C53.0526 30.25 54.9762 31.0468 56.3944 32.465C57.8127 33.8833 58.6094 35.8068 58.6094 37.8125V54.9302ZM85.0782 49.1562C85.0782 49.2394 85.0498 49.334 85.0479 49.419C80.6976 50.6309 77.5157 55.8944 77.5157 62.3906H81.2969C81.2969 57.6281 83.5487 53.5992 86.3336 53.0472C86.3581 53.0472 86.377 53.0698 86.3997 53.0736C88.1468 53.3801 89.7298 54.2928 90.8705 55.6511C92.0112 57.0093 92.6366 58.7263 92.6366 60.5C92.6366 62.2737 92.0112 63.9907 90.8705 65.349C89.7298 66.7072 88.1468 67.6199 86.3997 67.9264C86.1491 67.9713 85.9101 68.0664 85.6971 68.206C85.4841 68.3456 85.3015 68.5267 85.1603 68.7386C85.019 68.9505 84.922 69.1887 84.8751 69.439C84.8282 69.6893 84.8323 69.9465 84.8872 70.1951C85.2548 71.7704 85.0994 73.4226 84.4445 74.9016C83.7895 76.3807 82.6707 77.6063 81.2572 78.3929C80.1596 77.0273 79.5128 75.3546 79.4063 73.6058C79.3819 73.1861 79.4446 72.7659 79.5903 72.3716C79.7361 71.9772 79.9618 71.6173 80.2533 71.3144L77.631 68.5919C76.9702 69.245 76.451 70.0273 76.1058 70.8899C75.7607 71.7526 75.597 72.6771 75.6251 73.6058C75.7052 75.8765 76.4392 78.0757 77.7388 79.9394C77.6953 79.9923 77.6329 80.0245 77.5951 80.0812C77.4532 80.2934 77.3558 80.5321 77.3087 80.7829C77.2616 81.0338 77.2658 81.2916 77.3209 81.5408C77.5616 82.5812 77.5792 83.6608 77.3725 84.7085C77.1658 85.7563 76.7396 86.7483 76.1218 87.6194C75.5041 88.4906 74.7089 89.221 73.7885 89.7626C72.8682 90.3042 71.8435 90.6448 70.782 90.7619C69.7206 90.8789 68.6463 90.7699 67.63 90.4419C66.6138 90.1138 65.6785 89.5743 64.8857 88.8587C64.093 88.1432 63.4608 87.2679 63.0308 86.2904C62.6007 85.3129 62.3826 84.2554 62.3907 83.1875V75.3679C66.7561 74.173 69.9532 68.9019 69.9532 62.3906H66.1719C66.1719 66.4101 64.5649 69.9077 62.3907 71.2425V37.8125C62.3907 35.8068 63.1874 33.8833 64.6057 32.465C66.0239 31.0468 67.9475 30.25 69.9532 30.25C71.9589 30.25 73.8824 31.0468 75.3007 32.465C76.7189 33.8833 77.5157 35.8068 77.5157 37.8125C77.5157 37.8957 77.4873 37.9902 77.4854 38.0753C73.1351 39.2872 69.9532 44.5507 69.9532 51.0469H73.7344C73.7344 46.2844 75.9862 42.2555 78.7711 41.7034C78.7956 41.7034 78.8145 41.7261 78.8372 41.7299C80.585 42.0355 82.169 42.9478 83.3106 44.3061C84.4521 45.6645 85.078 47.3819 85.0782 49.1562Z" fill="url(#paint1_linear_639_1230)"/>
<path d="M64.4987 107.603L67.3063 105.497L65.0376 102.472L57.4751 108.144C57.2402 108.32 57.0497 108.548 56.9184 108.811C56.7871 109.073 56.7188 109.363 56.7188 109.656C56.7188 109.95 56.7871 110.239 56.9184 110.502C57.0497 110.764 57.2402 110.993 57.4751 111.169L65.0376 116.841L67.3063 113.816L64.079 111.396C88.6477 109.855 107.923 92.6084 111.534 68.3385L107.794 67.7864C104.431 90.3907 87.2581 105.964 64.4987 107.603ZM111.396 56.921C109.855 32.3523 92.6085 13.0774 68.3405 9.46631L67.7846 13.206C90.3908 16.5618 105.964 33.7363 107.603 56.5013L105.497 53.6937L102.472 55.9624L108.144 63.5249C108.32 63.7598 108.548 63.9503 108.811 64.0816C109.073 64.2129 109.363 64.2812 109.656 64.2812C109.95 64.2812 110.239 64.2129 110.502 64.0816C110.764 63.9503 110.993 63.7598 111.169 63.5249L116.841 55.9624L113.816 53.6937L111.396 56.921ZM13.397 64.4986L15.5032 67.3062L18.5282 65.0375L12.8563 57.4749C12.6726 57.2516 12.4416 57.0718 12.1801 56.9483C11.9186 56.8248 11.633 56.7608 11.3438 56.7608C11.0546 56.7608 10.769 56.8248 10.5075 56.9483C10.246 57.0718 10.015 57.2516 9.8313 57.4749L4.15942 65.0375L7.18442 67.3062L9.60442 64.0789C11.1453 88.6476 28.3916 107.922 52.6596 111.534L53.2155 107.794C30.6093 104.431 15.0362 87.2561 13.397 64.4986Z" fill="url(#paint2_linear_639_1230)"/>
<defs>
<linearGradient id="paint0_linear_639_1230" x1="36.8738" y1="4.15942" x2="36.8738" y2="53.2136" gradientUnits="userSpaceOnUse">
<stop stop-color="#AAAAAA"/>
<stop offset="1" stop-color="white"/>
</linearGradient>
<linearGradient id="paint1_linear_639_1230" x1="60.5001" y1="26.4688" x2="60.5001" y2="94.5187" gradientUnits="userSpaceOnUse">
<stop stop-color="#AAAAAA"/>
<stop offset="1" stop-color="white"/>
</linearGradient>
<linearGradient id="paint2_linear_639_1230" x1="60.5" y1="9.46631" x2="60.5" y2="116.841" gradientUnits="userSpaceOnUse">
<stop stop-color="#AAAAAA"/>
<stop offset="1" stop-color="white"/>
</linearGradient>
</defs>
</svg>
