<svg width="100" height="100" viewBox="0 0 100 100" fill="none" xmlns="http://www.w3.org/2000/svg">
<path d="M32.6917 61.4347C36.9581 61.4347 40.4269 57.9589 40.4269 53.6937C40.4269 49.4261 36.9581 45.9529 32.6917 45.9529C28.4282 45.9529 24.9595 49.4261 24.9595 53.6937C24.9593 57.9589 28.428 61.4347 32.6917 61.4347ZM32.6917 49.2779C35.1263 49.2779 37.1063 51.258 37.1063 53.6937C37.1063 56.1298 35.1263 58.1097 32.6917 58.1097C30.2585 58.1097 28.28 56.1296 28.28 53.6937C28.28 51.258 30.2585 49.2779 32.6917 49.2779ZM29.8058 84.4519C29.8058 85.2154 30.4255 85.8478 31.1874 85.8623H84.4659C85.2353 85.8568 85.8618 85.2269 85.8618 84.4519C85.8618 84.0447 85.6923 83.7482 85.5515 83.5744L85.13 83.0501L85.1355 83.0388L64.705 57.3804C64.1763 56.654 62.9983 56.6396 62.4513 57.3378L51.6948 70.8423L47.0979 65.0757C46.8159 64.7081 46.4085 64.5031 45.9653 64.5031C45.511 64.5031 45.0979 64.714 44.8315 65.0816L30.1901 83.4865C29.8968 83.8822 29.8058 84.1615 29.8058 84.4519ZM45.9683 68.9818L51.6964 76.1671L63.5626 61.2722L80.4944 82.5402H35.186L45.9683 68.9818Z" fill="url(#paint0_linear_655_1226)"/>
<path d="M92.3949 35.138L91.6783 35.1267L81.1482 6.19756C80.5242 4.47666 78.8761 3.32275 77.0468 3.32275C76.5382 3.32275 76.0357 3.41416 75.5541 3.5876L6.19722 28.8331C5.10171 29.2319 4.22847 30.0325 3.73413 31.0894C3.24292 32.1464 3.19156 33.3317 3.58882 34.4257L14.1418 63.6024V92.3095C14.1418 94.7196 16.099 96.6798 18.5066 96.6798H92.3152C94.7226 96.6798 96.68 94.7196 96.68 92.3095V39.4997C96.6796 37.1407 94.758 35.1864 92.3949 35.138ZM14.1416 39.4997V53.7108L6.3523 32.3089L77.6695 6.35127L88.1498 35.1351H18.5064C16.0988 35.1351 14.1416 37.0952 14.1416 39.4997ZM93.3593 93.3524H17.4623V38.4571H93.3593V93.3524Z" fill="url(#paint1_linear_655_1226)"/>
<defs>
<linearGradient id="paint0_linear_655_1226" x1="55.4106" y1="45.9529" x2="55.4106" y2="85.8623" gradientUnits="userSpaceOnUse">
<stop stop-color="#D9D9D9"/>
<stop offset="1" stop-color="#74747E"/>
</linearGradient>
<linearGradient id="paint1_linear_655_1226" x1="50.0021" y1="3.32275" x2="50.0021" y2="96.6798" gradientUnits="userSpaceOnUse">
<stop stop-color="#D9D9D9"/>
<stop offset="1" stop-color="#74747E"/>
</linearGradient>
</defs>
</svg>
