<svg width="12" height="10" viewBox="0 0 12 10" fill="currentColor" xmlns="http://www.w3.org/2000/svg">
<path d="M8.74277 3.19394C9.11077 2.82594 9.47611 1.96727 7.94277 3.00994C6.51041 3.99573 5.06834 4.96733 3.61677 5.92461C3.39573 6.02456 3.15677 6.0788 2.91424 6.08407C2.67171 6.08934 2.43061 6.04553 2.20544 5.95527C1.28544 5.67927 0.211441 5.31127 0.211441 5.31127C0.211441 5.31127 -0.521892 4.85061 0.733441 4.35994C0.733441 4.35994 6.04077 2.18194 7.88144 1.41461C8.58677 1.10794 10.9794 0.126606 10.9794 0.126606C10.9794 0.126606 12.0841 -0.303394 11.9921 0.73994C11.9614 1.16927 11.7161 2.67327 11.4708 4.29861C11.1021 6.59927 10.7034 9.11527 10.7034 9.11527C10.7034 9.11527 10.6421 9.82061 10.1208 9.94327C9.5627 9.93383 9.02348 9.73971 8.58744 9.39127C8.46477 9.29927 6.28677 7.91861 5.48877 7.24394C5.4076 7.18895 5.34165 7.11432 5.29707 7.027C5.25248 6.93968 5.2307 6.8425 5.23376 6.7445C5.23682 6.6465 5.26462 6.55087 5.31457 6.46649C5.36452 6.38212 5.43499 6.31176 5.51944 6.26194C6.61394 5.26055 7.6886 4.23769 8.74277 3.19394Z" fill="white"/>
</svg>
