<svg width="115" height="114" viewBox="0 0 115 114" fill="none" xmlns="http://www.w3.org/2000/svg">
<path d="M55.6094 90.5312H74.5156C76.0199 90.5312 77.4626 89.9337 78.5262 88.87C79.5899 87.8063 80.1875 86.3636 80.1875 84.8594V71.625C80.1816 70.2635 79.6861 68.9496 78.7916 67.9232C77.8971 66.8968 76.6632 66.2264 75.3154 66.0344C75.0315 63.4807 73.8404 61.1137 71.9588 59.364C70.0772 57.6142 67.6301 56.5979 65.0625 56.5C62.934 56.5043 60.8655 57.2055 59.1732 58.4965C58.7721 58.7974 58.5069 59.2452 58.436 59.7416C58.365 60.238 58.4942 60.7422 58.7951 61.1434C59.0959 61.5445 59.5438 61.8097 60.0402 61.8806C60.5366 61.9515 61.0408 61.8224 61.442 61.5215C62.4815 60.7247 63.7528 60.2893 65.0625 60.2812C66.6116 60.3636 68.0869 60.9697 69.2465 62.0002C70.4061 63.0306 71.1814 64.4244 71.4452 65.9531H55.6094C54.1051 65.9531 52.6624 66.5507 51.5988 67.6144C50.5351 68.6781 49.9375 70.1207 49.9375 71.625V84.8594C49.9375 86.3636 50.5351 87.8063 51.5988 88.87C52.6624 89.9337 54.1051 90.5312 55.6094 90.5312ZM53.7188 71.625C53.7188 71.1236 53.9179 70.6427 54.2725 70.2881C54.6271 69.9336 55.108 69.7344 55.6094 69.7344H74.5156C75.017 69.7344 75.4979 69.9336 75.8525 70.2881C76.2071 70.6427 76.4062 71.1236 76.4062 71.625V84.8594C76.4062 85.3608 76.2071 85.8417 75.8525 86.1963C75.4979 86.5508 75.017 86.75 74.5156 86.75H55.6094C55.108 86.75 54.6271 86.5508 54.2725 86.1963C53.9179 85.8417 53.7188 85.3608 53.7188 84.8594V71.625Z" fill="url(#paint0_linear_662_9029)"/>
<path d="M65.0625 82.9688C65.5639 82.9688 66.0448 82.7696 66.3994 82.415C66.7539 82.0604 66.9531 81.5795 66.9531 81.0781V75.4062C66.9531 74.9048 66.7539 74.4239 66.3994 74.0694C66.0448 73.7148 65.5639 73.5156 65.0625 73.5156C64.5611 73.5156 64.0802 73.7148 63.7256 74.0694C63.3711 74.4239 63.1719 74.9048 63.1719 75.4062V81.0781C63.1719 81.5795 63.3711 82.0604 63.7256 82.415C64.0802 82.7696 64.5611 82.9688 65.0625 82.9688Z" fill="url(#paint1_linear_662_9029)"/>
<path d="M38.5938 75.4062C38.5938 80.6413 40.1461 85.7587 43.0545 90.1115C45.963 94.4643 50.0968 97.8568 54.9333 99.8602C59.7699 101.864 65.0919 102.388 70.2263 101.366C75.3607 100.345 80.077 97.8242 83.7787 94.1225C87.4805 90.4208 90.0014 85.7045 91.0227 80.57C92.044 75.4356 91.5198 70.1136 89.5164 65.2771C87.5131 60.4406 84.1205 56.3067 79.7678 53.3983C75.415 50.4899 70.2975 48.9375 65.0625 48.9375C58.0449 48.945 51.3168 51.7361 46.3546 56.6983C41.3923 61.6605 38.6013 68.3886 38.5938 75.4062ZM65.0625 52.7188C69.5497 52.7188 73.9361 54.0494 77.667 56.5423C81.3979 59.0352 84.3059 62.5785 86.023 66.7241C87.7402 70.8697 88.1895 75.4314 87.3141 79.8324C86.4387 84.2333 84.2779 88.2758 81.105 91.4487C77.9321 94.6216 73.8896 96.7824 69.4886 97.6578C65.0877 98.5332 60.526 98.0839 56.3804 96.3668C52.2348 94.6496 48.6915 91.7417 46.1985 88.0107C43.7056 84.2798 42.375 79.8934 42.375 75.4062C42.3815 69.3911 44.7739 63.6243 49.0272 59.371C53.2805 55.1176 59.0474 52.7253 65.0625 52.7188Z" fill="url(#paint2_linear_662_9029)"/>
<path d="M108.547 22.4688H104.766V13.0156C104.766 12.5142 104.566 12.0333 104.212 11.6788C103.857 11.3242 103.376 11.125 102.875 11.125H91.5312V1.67188C91.5312 1.17045 91.332 0.689562 90.9774 0.335001C90.6229 -0.0195598 90.142 -0.21875 89.6406 -0.21875H10.2343C9.73288 -0.21875 9.252 -0.0195598 8.89744 0.335001C8.54287 0.689562 8.34368 1.17045 8.34368 1.67188V22.4688H7.74247C5.81836 22.5537 4.00611 23.3969 2.70172 24.8139C1.39734 26.231 0.706865 28.1067 0.781184 30.0312V105.503C0.702154 107.463 1.40156 109.374 2.7267 110.819C4.05185 112.265 5.89509 113.127 7.85401 113.219H107.439C109.357 113.085 111.145 112.199 112.415 110.755C113.684 109.31 114.332 107.423 114.219 105.503V28.1406C114.219 26.6364 113.621 25.1937 112.557 24.13C111.494 23.0663 110.051 22.4688 108.547 22.4688ZM100.984 14.9062V37.5938H61.9599C61.5589 37.5894 61.1746 37.4318 60.886 37.1532L46.8614 23.9397C45.8731 22.9976 44.5608 22.471 43.1955 22.4688H25.3593V14.9062H100.984ZM7.85401 109.438C6.89921 109.344 6.01931 108.879 5.40371 108.143C4.7881 107.408 4.486 106.459 4.56243 105.503V30.0312C4.49036 29.1098 4.78338 28.1969 5.37828 27.4895C5.97318 26.7822 6.82229 26.337 7.74247 26.25H8.34368V103.766C8.34368 104.267 8.54287 104.748 8.89744 105.103C9.252 105.457 9.73288 105.656 10.2343 105.656H15.9194C15.9409 106.975 16.2718 108.27 16.8855 109.438H7.85401ZM110.437 105.503C110.437 107.636 109.063 109.438 107.439 109.438H22.686C21.0619 109.438 19.6874 107.636 19.6874 105.503V73.5156C19.6874 73.0142 19.4882 72.5333 19.1337 72.1787C18.7791 71.8242 18.2982 71.625 17.7968 71.625C17.2954 71.625 16.8145 71.8242 16.4599 72.1787C16.1054 72.5333 15.9062 73.0142 15.9062 73.5156V101.875H12.1249V3.5625H87.7499V11.125H23.4687C22.9673 11.125 22.4864 11.3242 22.1318 11.6788C21.7773 12.0333 21.5781 12.5142 21.5781 13.0156V22.5841C19.9114 22.9669 18.4314 23.9215 17.3953 25.2819C16.3592 26.6424 15.8323 28.3228 15.9062 30.0312V58.3906C15.9062 58.8921 16.1054 59.3729 16.4599 59.7275C16.8145 60.0821 17.2954 60.2812 17.7968 60.2812C18.2982 60.2812 18.7791 60.0821 19.1337 59.7275C19.4882 59.3729 19.6874 58.8921 19.6874 58.3906V30.0312C19.5977 29.1512 19.847 28.2701 20.3845 27.5674C20.922 26.8648 21.7072 26.3937 22.5801 26.25H43.1879C43.5884 26.2545 43.972 26.4121 44.2599 26.6905L58.2845 39.9041C59.2736 40.8461 60.5865 41.3726 61.9524 41.375H110.437V105.503ZM110.437 37.5938H104.766V26.25H108.547C109.048 26.25 109.529 26.4492 109.884 26.8037C110.238 27.1583 110.437 27.6392 110.437 28.1406V37.5938Z" fill="url(#paint3_linear_662_9029)"/>
<path d="M57.5 24.3594H95.3125C95.8139 24.3594 96.2948 24.1602 96.6494 23.8056C97.0039 23.4511 97.2031 22.9702 97.2031 22.4688C97.2031 21.9673 97.0039 21.4864 96.6494 21.1319C96.2948 20.7773 95.8139 20.5781 95.3125 20.5781H57.5C56.9986 20.5781 56.5177 20.7773 56.1631 21.1319C55.8086 21.4864 55.6094 21.9673 55.6094 22.4688C55.6094 22.9702 55.8086 23.4511 56.1631 23.8056C56.5177 24.1602 56.9986 24.3594 57.5 24.3594ZM95.3125 28.1406H66.9531C66.4517 28.1406 65.9708 28.3398 65.6163 28.6944C65.2617 29.0489 65.0625 29.5298 65.0625 30.0312C65.0625 30.5327 65.2617 31.0136 65.6163 31.3681C65.9708 31.7227 66.4517 31.9219 66.9531 31.9219H95.3125C95.8139 31.9219 96.2948 31.7227 96.6494 31.3681C97.0039 31.0136 97.2031 30.5327 97.2031 30.0312C97.2031 29.5298 97.0039 29.0489 96.6494 28.6944C96.2948 28.3398 95.8139 28.1406 95.3125 28.1406Z" fill="url(#paint4_linear_662_9029)"/>
<path d="M17.7969 67.8438C18.841 67.8438 19.6875 66.9973 19.6875 65.9531C19.6875 64.909 18.841 64.0625 17.7969 64.0625C16.7527 64.0625 15.9062 64.909 15.9062 65.9531C15.9062 66.9973 16.7527 67.8438 17.7969 67.8438Z" fill="url(#paint5_linear_662_9029)"/>
<defs>
<linearGradient id="paint0_linear_662_9029" x1="65.0625" y1="56.5" x2="65.0625" y2="90.5312" gradientUnits="userSpaceOnUse">
<stop stop-color="#AAAAAA"/>
<stop offset="1" stop-color="white"/>
</linearGradient>
<linearGradient id="paint1_linear_662_9029" x1="65.0625" y1="73.5156" x2="65.0625" y2="82.9688" gradientUnits="userSpaceOnUse">
<stop stop-color="#AAAAAA"/>
<stop offset="1" stop-color="white"/>
</linearGradient>
<linearGradient id="paint2_linear_662_9029" x1="65.0625" y1="48.9375" x2="65.0625" y2="101.875" gradientUnits="userSpaceOnUse">
<stop stop-color="#AAAAAA"/>
<stop offset="1" stop-color="white"/>
</linearGradient>
<linearGradient id="paint3_linear_662_9029" x1="57.5033" y1="-0.21875" x2="57.5033" y2="113.219" gradientUnits="userSpaceOnUse">
<stop stop-color="#AAAAAA"/>
<stop offset="1" stop-color="white"/>
</linearGradient>
<linearGradient id="paint4_linear_662_9029" x1="76.4062" y1="20.5781" x2="76.4062" y2="31.9219" gradientUnits="userSpaceOnUse">
<stop stop-color="#AAAAAA"/>
<stop offset="1" stop-color="white"/>
</linearGradient>
<linearGradient id="paint5_linear_662_9029" x1="17.7969" y1="64.0625" x2="17.7969" y2="67.8438" gradientUnits="userSpaceOnUse">
<stop stop-color="#AAAAAA"/>
<stop offset="1" stop-color="white"/>
</linearGradient>
</defs>
</svg>
