<svg width="741" height="736" viewBox="0 0 741 736" fill="none" xmlns="http://www.w3.org/2000/svg">
<g clip-path="url(#clip0_107_1223)">
<path d="M358.318 584.482H480.14C489.833 584.482 499.129 580.625 505.982 573.757C512.836 566.89 516.686 557.576 516.686 547.864V462.421C516.648 453.631 513.456 445.148 507.692 438.522C501.928 431.895 493.978 427.567 485.293 426.327C483.464 409.84 475.789 394.559 463.665 383.262C451.541 371.965 435.773 365.404 419.229 364.772C405.514 364.8 392.186 369.327 381.281 377.662C378.697 379.604 376.988 382.495 376.531 385.7C376.074 388.905 376.906 392.16 378.845 394.75C380.783 397.34 383.669 399.052 386.868 399.51C390.066 399.968 393.315 399.134 395.9 397.191C402.598 392.047 410.79 389.236 419.229 389.184C429.21 389.716 438.716 393.629 446.188 400.282C453.66 406.934 458.656 415.933 460.356 425.803H358.318C348.625 425.803 339.329 429.661 332.476 436.528C325.622 443.396 321.771 452.709 321.771 462.421V547.864C321.771 557.576 325.622 566.89 332.476 573.757C339.329 580.625 348.625 584.482 358.318 584.482ZM346.136 462.421C346.136 459.184 347.419 456.079 349.704 453.79C351.989 451.501 355.087 450.215 358.318 450.215H480.14C483.37 450.215 486.469 451.501 488.754 453.79C491.039 456.079 492.322 459.184 492.322 462.421V547.864C492.322 551.101 491.039 554.206 488.754 556.495C486.469 558.784 483.37 560.07 480.14 560.07H358.318C355.087 560.07 351.989 558.784 349.704 556.495C347.419 554.206 346.136 551.101 346.136 547.864V462.421Z" fill="url(#paint0_linear_107_1223)" stroke="#AAAAAA" stroke-width="5"/>
<path d="M419.229 535.658C422.46 535.658 425.558 534.372 427.843 532.083C430.127 529.793 431.411 526.689 431.411 523.452V486.833C431.411 483.596 430.127 480.491 427.843 478.202C425.558 475.913 422.46 474.627 419.229 474.627C415.998 474.627 412.899 475.913 410.615 478.202C408.33 480.491 407.047 483.596 407.047 486.833V523.452C407.047 526.689 408.33 529.793 410.615 532.083C412.899 534.372 415.998 535.658 419.229 535.658Z" fill="url(#paint1_linear_107_1223)" stroke="#AAAAAA" stroke-width="5"/>
<path d="M248.678 486.833C248.678 520.631 258.68 553.67 277.421 581.772C296.162 609.875 322.798 631.777 353.961 644.711C385.126 657.648 419.418 661.031 452.502 654.433C485.585 647.841 515.974 631.567 539.826 607.668C563.679 583.769 579.922 553.32 586.503 520.171C593.083 487.023 589.706 452.663 576.797 421.438C563.889 390.213 542.028 363.524 513.982 344.747C485.935 325.97 452.96 315.947 419.229 315.947C374.011 315.996 330.659 334.015 298.685 366.052C266.71 398.089 248.727 441.526 248.678 486.833ZM419.229 340.36C448.142 340.36 476.406 348.95 500.446 365.045C524.485 381.139 543.223 404.015 554.287 430.78C565.352 457.545 568.247 486.996 562.606 515.409C556.966 543.822 543.043 569.921 522.598 590.406C502.154 610.89 476.106 624.841 447.748 630.492C419.391 636.144 389.998 633.243 363.286 622.157C336.574 611.071 313.743 592.297 297.679 568.209C281.616 544.122 273.042 515.803 273.042 486.833C273.084 447.999 288.5 410.767 315.906 383.307C343.312 355.847 380.471 340.402 419.229 340.36Z" fill="url(#paint2_linear_107_1223)" stroke="#AAAAAA" stroke-width="5"/>
<path d="M699.42 145.062H675.057V84.0305C675.057 80.7934 673.769 77.6886 671.488 75.3999C669.2 73.1106 666.101 71.8245 662.873 71.8245H589.779V10.7938C589.779 7.55652 588.496 4.45184 586.211 2.16274C583.927 -0.126354 580.828 -1.41235 577.597 -1.41235H65.9445C62.7136 -1.41235 59.615 -0.126354 57.3304 2.16274C55.0458 4.45184 53.7623 7.55652 53.7623 10.7938V145.062H49.8884C37.4905 145.61 25.8133 151.054 17.4085 160.202C9.00372 169.351 4.55466 181.461 5.03353 193.886V681.142C4.5243 693.796 9.03091 706.134 17.5694 715.463C26.108 724.799 37.9849 730.364 50.6071 730.958H692.281C704.639 730.093 716.16 724.372 724.344 715.05C732.52 705.721 736.696 693.538 735.968 681.142V181.68C735.968 171.968 732.114 162.654 725.259 155.787C718.409 148.919 709.111 145.062 699.42 145.062ZM650.688 96.2365V242.711H399.237C396.653 242.682 394.177 241.665 392.318 239.866L301.95 154.558C295.582 148.476 287.127 145.076 278.329 145.062H163.402V96.2365H650.688ZM50.6071 706.547C44.4549 705.94 38.7853 702.938 34.8187 698.186C30.852 693.441 28.9054 687.314 29.3979 681.142V193.886C28.9335 187.937 30.8216 182.043 34.6548 177.476C38.488 172.91 43.9593 170.035 49.8884 169.474H53.7623V669.928C53.7623 673.162 55.0458 676.268 57.3304 678.56C59.615 680.845 62.7136 682.13 65.9445 682.13H102.576C102.715 690.646 104.847 699.006 108.801 706.547H50.6071ZM711.598 681.142C711.598 694.913 702.745 706.547 692.281 706.547H146.177C135.712 706.547 126.855 694.913 126.855 681.142V474.627C126.855 471.39 125.572 468.285 123.288 465.996C121.003 463.707 117.904 462.421 114.673 462.421C111.443 462.421 108.344 463.707 106.059 465.996C103.775 468.285 102.491 471.39 102.491 474.627V657.719H78.1265V22.9999H565.415V71.8245H151.22C147.989 71.8245 144.891 73.1106 142.606 75.3999C140.322 77.6886 139.038 80.7934 139.038 84.0305V145.806C128.299 148.277 118.762 154.44 112.086 163.223C105.41 172.007 102.015 182.856 102.491 193.886V376.978C102.491 380.216 103.775 383.32 106.059 385.609C108.344 387.898 111.443 389.184 114.673 389.184C117.904 389.184 121.003 387.898 123.288 385.609C125.572 383.32 126.855 380.216 126.855 376.978V193.886C126.277 188.204 127.884 182.516 131.347 177.979C134.81 173.443 139.87 170.401 145.494 169.474H278.28C280.861 169.503 283.333 170.52 285.188 172.318L375.555 257.626C381.928 263.708 390.388 267.107 399.189 267.123H711.598V681.142ZM711.598 242.711H675.057V169.474H699.42C702.648 169.474 705.748 170.76 708.035 173.048C710.316 175.338 711.598 178.442 711.598 181.68V242.711Z" fill="url(#paint3_linear_107_1223)" stroke="#AAAAAA" stroke-width="5"/>
<path d="M370.5 157.268H614.144C617.375 157.268 620.473 155.982 622.758 153.692C625.042 151.403 626.326 148.299 626.326 145.062C626.326 141.824 625.042 138.719 622.758 136.43C620.473 134.141 617.375 132.855 614.144 132.855H370.5C367.269 132.855 364.17 134.141 361.886 136.43C359.601 138.719 358.318 141.824 358.318 145.062C358.318 148.299 359.601 151.403 361.886 153.692C364.17 155.982 367.269 157.268 370.5 157.268ZM614.144 181.68H431.411C428.18 181.68 425.081 182.966 422.797 185.255C420.512 187.544 419.229 190.648 419.229 193.886C419.229 197.123 420.512 200.228 422.797 202.517C425.081 204.806 428.18 206.092 431.411 206.092H614.144C617.375 206.092 620.473 204.806 622.758 202.517C625.042 200.228 626.326 197.123 626.326 193.886C626.326 190.648 625.042 187.544 622.758 185.255C620.473 182.966 617.375 181.68 614.144 181.68Z" fill="url(#paint4_linear_107_1223)" stroke="#AAAAAA" stroke-width="5"/>
<path d="M114.674 438.009C121.402 438.009 126.856 432.544 126.856 425.802C126.856 419.062 121.402 413.596 114.674 413.596C107.946 413.596 102.491 419.062 102.491 425.802C102.491 432.544 107.946 438.009 114.674 438.009Z" fill="url(#paint5_linear_107_1223)" stroke="#AAAAAA" stroke-width="5"/>
</g>
<defs>
<linearGradient id="paint0_linear_107_1223" x1="419.229" y1="364.772" x2="419.229" y2="584.482" gradientUnits="userSpaceOnUse">
<stop offset="0.0001" stop-color="#AAAAAA"/>
</linearGradient>
<linearGradient id="paint1_linear_107_1223" x1="419.229" y1="474.627" x2="419.229" y2="535.658" gradientUnits="userSpaceOnUse">
<stop offset="0.0001" stop-color="#AAAAAA"/>
</linearGradient>
<linearGradient id="paint2_linear_107_1223" x1="419.229" y1="315.947" x2="419.229" y2="657.72" gradientUnits="userSpaceOnUse">
<stop offset="0.0001" stop-color="#AAAAAA"/>
</linearGradient>
<linearGradient id="paint3_linear_107_1223" x1="370.521" y1="-1.41235" x2="370.521" y2="730.958" gradientUnits="userSpaceOnUse">
<stop offset="0.0001" stop-color="#AAAAAA"/>
</linearGradient>
<linearGradient id="paint4_linear_107_1223" x1="492.322" y1="132.855" x2="492.322" y2="206.092" gradientUnits="userSpaceOnUse">
<stop offset="0.0001" stop-color="#AAAAAA"/>
</linearGradient>
<linearGradient id="paint5_linear_107_1223" x1="114.674" y1="413.596" x2="114.674" y2="438.009" gradientUnits="userSpaceOnUse">
<stop offset="0.0001" stop-color="#AAAAAA"/>
</linearGradient>
<clipPath id="clip0_107_1223">
<rect width="741" height="736" fill="#AAAAAA"/>
</clipPath>
</defs>
</svg>
