<svg width="114" height="74" viewBox="0 0 114 74" fill="none" xmlns="http://www.w3.org/2000/svg">
<path d="M93.0801 31.2109C93.0801 30.9062 93.1309 30.6016 93.1309 30.2969C93.1309 13.793 79.9785 0.4375 63.7539 0.4375C52.0488 0.4375 41.9941 7.39453 37.2715 17.4492C35.2148 16.4082 32.9043 15.7988 30.4668 15.7988C22.9766 15.7988 16.7305 21.3594 15.5371 28.6211C6.54883 31.7188 0.125 40.3262 0.125 50.457C0.125 63.2031 10.3066 73.5625 22.8496 73.5625H48.875V53.25H36.6367L57 31.998L77.3633 53.2246H65.125V73.5371H93.1309C104.607 73.5371 113.875 64.0156 113.875 52.3613C113.875 40.707 104.557 31.2363 93.0801 31.2109Z" fill="url(#paint0_linear_305_4921)"/>
<defs>
<linearGradient id="paint0_linear_305_4921" x1="57" y1="0.4375" x2="57" y2="73.5625" gradientUnits="userSpaceOnUse">
<stop stop-color="#74747E"/>
<stop offset="1" stop-color="white"/>
</linearGradient>
</defs>
</svg>
