<svg width="109" height="109" viewBox="0 0 109 109" fill="none" xmlns="http://www.w3.org/2000/svg">
<path d="M91.9688 63.0156H57.9062C55.0888 63.0156 52.7969 65.3075 52.7969 68.125V83.4531H22.1406V15.3281H59.6094V30.6562C59.6094 31.5976 60.3711 32.3594 61.3125 32.3594H76.6406V57.9062C76.6406 58.8476 77.4024 59.6094 78.3438 59.6094C79.2851 59.6094 80.0469 58.8476 80.0469 57.9062V28.9531C80.0469 28.5007 79.8672 28.0683 79.5479 27.749L64.2198 12.4208C63.9005 12.1015 63.468 11.9219 63.0156 11.9219H20.4375C19.4961 11.9219 18.7344 12.6836 18.7344 13.625V18.7344H13.625C12.6836 18.7344 11.9219 19.4961 11.9219 20.4375V91.9688C11.9219 92.9101 12.6836 93.6719 13.625 93.6719H47.6875C48.6289 93.6719 49.3906 92.9101 49.3906 91.9688C49.3906 91.0274 48.6289 90.2656 47.6875 90.2656H15.3281V22.1406H18.7344V85.1562C18.7344 86.0976 19.4961 86.8594 20.4375 86.8594H52.7969V91.9688C52.7969 94.7862 55.0888 97.0781 57.9062 97.0781H71.5312C72.4726 97.0781 73.2344 96.3164 73.2344 95.375C73.2344 94.4336 72.4726 93.6719 71.5312 93.6719H57.9062C56.9665 93.6719 56.2031 92.9085 56.2031 91.9688V68.125C56.2031 67.1853 56.9665 66.4219 57.9062 66.4219H91.9688C92.9085 66.4219 93.6719 67.1853 93.6719 68.125V91.9688C93.6719 92.9085 92.9085 93.6719 91.9688 93.6719H78.3438C77.4024 93.6719 76.6406 94.4336 76.6406 95.375C76.6406 96.3164 77.4024 97.0781 78.3438 97.0781H91.9688C94.7862 97.0781 97.0781 94.7862 97.0781 91.9688V68.125C97.0781 65.3075 94.7862 63.0156 91.9688 63.0156ZM63.0156 16.0333L75.9354 28.9531H63.0156V16.0333Z" fill="url(#paint0_linear_655_1237)"/>
<path d="M85.1562 80.0469C85.1562 79.4481 84.8419 78.8943 84.3296 78.5866L70.7046 70.4119C70.1774 70.0959 69.5221 70.0859 68.9882 70.3903C68.4543 70.693 68.125 71.2585 68.125 71.8722V88.2215C68.125 88.8353 68.4543 89.4008 68.9882 89.7035C69.519 90.0043 70.1815 89.9951 70.7046 89.6818L84.3296 81.5072C84.8419 81.1995 85.1562 80.6456 85.1562 80.0469ZM71.5312 85.2128V74.881L80.1433 80.0469L71.5312 85.2128ZM30.6562 27.25C27.8388 27.25 25.5469 29.5419 25.5469 32.3594C25.5469 35.1769 27.8388 37.4688 30.6562 37.4688C33.4737 37.4688 35.7656 35.1769 35.7656 32.3594C35.7656 29.5419 33.4737 27.25 30.6562 27.25ZM30.6562 34.0625C29.7165 34.0625 28.9531 33.2991 28.9531 32.3594C28.9531 31.4197 29.7165 30.6563 30.6562 30.6563C31.596 30.6563 32.3594 31.4197 32.3594 32.3594C32.3594 33.2991 31.596 34.0625 30.6562 34.0625ZM30.6562 40.875C27.8388 40.875 25.5469 43.1669 25.5469 45.9844C25.5469 48.8019 27.8388 51.0938 30.6562 51.0938C33.4737 51.0938 35.7656 48.8019 35.7656 45.9844C35.7656 43.1669 33.4737 40.875 30.6562 40.875ZM30.6562 47.6875C29.7165 47.6875 28.9531 46.9241 28.9531 45.9844C28.9531 45.0447 29.7165 44.2813 30.6562 44.2813C31.596 44.2813 32.3594 45.0447 32.3594 45.9844C32.3594 46.9241 31.596 47.6875 30.6562 47.6875ZM30.6562 54.5C27.8388 54.5 25.5469 56.7919 25.5469 59.6094C25.5469 62.4269 27.8388 64.7188 30.6562 64.7188C33.4737 64.7188 35.7656 62.4269 35.7656 59.6094C35.7656 56.7919 33.4737 54.5 30.6562 54.5ZM30.6562 61.3125C29.7165 61.3125 28.9531 60.5491 28.9531 59.6094C28.9531 58.6697 29.7165 57.9063 30.6562 57.9063C31.596 57.9063 32.3594 58.6697 32.3594 59.6094C32.3594 60.5491 31.596 61.3125 30.6562 61.3125ZM30.6562 68.125C27.8388 68.125 25.5469 70.4169 25.5469 73.2344C25.5469 76.0519 27.8388 78.3438 30.6562 78.3438C33.4737 78.3438 35.7656 76.0519 35.7656 73.2344C35.7656 70.4169 33.4737 68.125 30.6562 68.125ZM30.6562 74.9375C29.7165 74.9375 28.9531 74.1741 28.9531 73.2344C28.9531 72.2947 29.7165 71.5313 30.6562 71.5313C31.596 71.5313 32.3594 72.2947 32.3594 73.2344C32.3594 74.1741 31.596 74.9375 30.6562 74.9375ZM45.9844 22.1406C45.9844 21.1993 45.2226 20.4375 44.2812 20.4375H27.25C26.3086 20.4375 25.5469 21.1993 25.5469 22.1406C25.5469 23.082 26.3086 23.8438 27.25 23.8438H44.2812C45.2226 23.8438 45.9844 23.082 45.9844 22.1406ZM54.5 27.25H40.875C39.9336 27.25 39.1719 28.0118 39.1719 28.9531C39.1719 29.8945 39.9336 30.6563 40.875 30.6563H54.5C55.4414 30.6563 56.2031 29.8945 56.2031 28.9531C56.2031 28.0118 55.4414 27.25 54.5 27.25ZM54.5 34.0625H40.875C39.9336 34.0625 39.1719 34.8243 39.1719 35.7656C39.1719 36.707 39.9336 37.4688 40.875 37.4688H54.5C55.4414 37.4688 56.2031 36.707 56.2031 35.7656C56.2031 34.8243 55.4414 34.0625 54.5 34.0625ZM71.5312 40.875H40.875C39.9336 40.875 39.1719 41.6368 39.1719 42.5781C39.1719 43.5195 39.9336 44.2813 40.875 44.2813H71.5312C72.4726 44.2813 73.2344 43.5195 73.2344 42.5781C73.2344 41.6368 72.4726 40.875 71.5312 40.875ZM71.5312 47.6875H40.875C39.9336 47.6875 39.1719 48.4493 39.1719 49.3906C39.1719 50.332 39.9336 51.0938 40.875 51.0938H71.5312C72.4726 51.0938 73.2344 50.332 73.2344 49.3906C73.2344 48.4493 72.4726 47.6875 71.5312 47.6875ZM73.2344 56.2031C73.2344 55.2618 72.4726 54.5 71.5312 54.5H40.875C39.9336 54.5 39.1719 55.2618 39.1719 56.2031C39.1719 57.1445 39.9336 57.9063 40.875 57.9063H71.5312C72.4726 57.9063 73.2344 57.1445 73.2344 56.2031ZM47.6875 61.3125H40.875C39.9336 61.3125 39.1719 62.0743 39.1719 63.0156C39.1719 63.957 39.9336 64.7188 40.875 64.7188H47.6875C48.6289 64.7188 49.3906 63.957 49.3906 63.0156C49.3906 62.0743 48.6289 61.3125 47.6875 61.3125ZM47.6875 68.125H40.875C39.9336 68.125 39.1719 68.8868 39.1719 69.8281C39.1719 70.7695 39.9336 71.5313 40.875 71.5313H47.6875C48.6289 71.5313 49.3906 70.7695 49.3906 69.8281C49.3906 68.8868 48.6289 68.125 47.6875 68.125ZM47.6875 74.9375H40.875C39.9336 74.9375 39.1719 75.6993 39.1719 76.6406C39.1719 77.582 39.9336 78.3438 40.875 78.3438H47.6875C48.6289 78.3438 49.3906 77.582 49.3906 76.6406C49.3906 75.6993 48.6289 74.9375 47.6875 74.9375Z" fill="url(#paint1_linear_655_1237)"/>
<defs>
<linearGradient id="paint0_linear_655_1237" x1="54.5" y1="11.9219" x2="54.5" y2="97.0781" gradientUnits="userSpaceOnUse">
<stop stop-color="#D9D9D9"/>
<stop offset="1" stop-color="#74747E"/>
</linearGradient>
<linearGradient id="paint1_linear_655_1237" x1="55.3516" y1="20.4375" x2="55.3516" y2="89.9231" gradientUnits="userSpaceOnUse">
<stop stop-color="#D9D9D9"/>
<stop offset="1" stop-color="#74747E"/>
</linearGradient>
</defs>
</svg>
