<svg width="194" height="130" viewBox="0 0 194 130" fill="none" xmlns="http://www.w3.org/2000/svg">
<path d="M6.32836 55.0268C6.05715 55.4196 5.94793 55.9009 6.02325 56.3715C6.09858 56.8421 6.3527 57.2659 6.7331 57.5553C7.1135 57.8448 7.59111 57.9777 8.06725 57.9268C8.54338 57.8758 8.98165 57.6448 9.29148 57.2815C9.54048 56.9594 34.4904 25.7164 94.9729 25.7164C155.455 25.7164 180.405 56.9594 180.654 57.2815C180.827 57.5058 181.049 57.6873 181.304 57.812C181.559 57.9366 181.839 58.001 182.123 58C182.535 57.9984 182.935 57.8684 183.269 57.6283C183.661 57.329 183.918 56.887 183.984 56.3993C184.049 55.9116 183.917 55.418 183.617 55.0268C182.572 53.5898 157.422 22 94.9729 22C32.5233 22 7.37417 53.5898 6.32836 55.0268Z" fill="#AAAAAA" stroke="#AAAAAA" stroke-width="5"/>
<path d="M93.9625 34C42.7328 34 12 74.5 12 74.5C12 74.5 42.7828 115 93.9625 115C145.142 115 176 74.5 176 74.5C176 74.5 145.242 34 93.9625 34ZM93.9625 105.899C87.663 105.889 81.5079 104.034 76.2752 100.569C71.0425 97.1036 66.9672 92.1834 64.5644 86.4302C62.1617 80.6771 61.5394 74.3493 62.7762 68.2468C64.0131 62.1442 67.0535 56.541 71.5132 52.1454C75.9728 47.7498 81.6515 44.7592 87.8313 43.5516C94.0111 42.344 100.415 42.9737 106.232 45.361C112.05 47.7483 117.02 51.786 120.516 56.9639C124.011 62.1417 125.874 68.227 125.869 74.4507C125.865 78.5858 125.037 82.6797 123.432 86.4985C121.826 90.3173 119.475 93.7861 116.512 96.7067C113.549 99.6272 110.032 101.942 106.163 103.519C102.294 105.097 98.1481 105.905 93.9625 105.899Z" fill="#AAAAAA"/>
<path d="M112.183 77.0402C111.665 80.2663 110.217 83.2792 108.011 85.7225C105.804 88.1657 102.931 89.9371 99.7317 90.8271C96.5322 91.717 93.1402 91.6883 89.9568 90.7442C86.7735 89.8002 83.9321 87.9803 81.7688 85.5C79.6055 83.0197 78.2108 79.9827 77.7498 76.7483C77.2888 73.514 77.7807 70.2176 79.1673 67.2492C80.5539 64.2808 82.7773 61.7646 85.5743 59.9982C88.3713 58.2319 91.6249 57.2894 94.9502 57.2822H95.8454C96.9879 55.1722 98.6671 53.3884 100.719 52.1045C102.772 50.8206 105.128 50.0802 107.558 49.9554C103.705 48.0303 99.4468 47.0182 95.1242 47.0003C89.578 46.9761 84.1493 48.5702 79.5268 51.5805C74.9043 54.5907 71.2962 58.8815 69.16 63.9086C67.0239 68.9356 66.456 74.4725 67.5284 79.817C68.6007 85.1615 71.265 90.0728 75.1834 93.9281C79.1017 97.7833 84.0976 100.409 89.5373 101.472C94.9771 102.534 100.616 101.986 105.738 99.8974C110.86 97.8084 115.235 94.2723 118.309 89.7377C121.382 85.2031 123.015 79.8743 123 74.427C122.994 71.9911 122.651 69.5674 121.98 67.2223C121.354 69.5527 120.122 71.6832 118.404 73.4045C116.687 75.1258 114.543 76.3787 112.183 77.0402Z" fill="#AAAAAA"/>
<path d="M82.0013 74.8758C81.9569 78.3148 83.0709 81.6502 85.1287 84.2395C87.1865 86.8288 90.0426 88.489 93.1468 88.9001C96.251 89.3112 99.3836 88.4443 101.941 86.4663C104.499 84.4883 106.301 81.5391 107 78.1868C103.553 78.1735 100.251 76.6577 97.8176 73.9716C95.3844 71.2855 94.0181 67.6481 94.0181 63.856C94.0165 62.8959 94.109 61.9384 94.2939 61C91.012 61.1175 87.8989 62.628 85.6073 65.2148C83.3156 67.8016 82.0233 71.2639 82.0013 74.8758Z" fill="#AAAAAA"/>
<path d="M108.418 55.1606C106.726 55.1606 105.072 55.6549 103.666 56.581C102.259 57.5071 101.163 58.8234 100.516 60.3634C99.8683 61.9034 99.6989 63.598 100.029 65.2328C100.359 66.8677 101.174 68.3694 102.37 69.5481C103.566 70.7268 105.09 71.5294 106.749 71.8546C108.408 72.1798 110.128 72.0129 111.691 71.375C113.253 70.7372 114.589 69.6569 115.529 68.2709C116.469 66.885 116.97 65.2555 116.97 63.5886C116.965 61.355 116.062 59.2144 114.459 57.635C112.857 56.0556 110.684 55.166 108.418 55.1606ZM4.53461 40.8049C4.94161 40.8049 5.33195 40.6456 5.61974 40.362C5.90754 40.0784 6.06922 39.6937 6.06922 39.2927V6.02439H39.0327C39.4397 6.02439 39.83 5.86507 40.1178 5.58148C40.4056 5.29789 40.5673 4.91325 40.5673 4.5122C40.5673 4.11114 40.4056 3.7265 40.1178 3.44291C39.83 3.15932 39.4397 3 39.0327 3H4.53461C4.12761 3 3.73727 3.15932 3.44948 3.44291C3.16168 3.7265 3 4.11114 3 4.5122V39.3733C3.01596 39.762 3.18531 40.1291 3.47197 40.3965C3.75862 40.6639 4.13992 40.8105 4.53461 40.8049ZM189.465 3H154.947C154.54 3 154.15 3.15932 153.862 3.44291C153.574 3.7265 153.412 4.11114 153.412 4.5122C153.412 4.91325 153.574 5.29789 153.862 5.58148C154.15 5.86507 154.54 6.02439 154.947 6.02439H187.931V39.3733C187.931 39.7744 188.092 40.159 188.38 40.4426C188.668 40.7262 189.058 40.8855 189.465 40.8855C189.872 40.8855 190.263 40.7262 190.551 40.4426C190.838 40.159 191 39.7744 191 39.3733V4.5122C190.995 4.11276 190.831 3.73115 190.545 3.44869C190.258 3.16622 189.871 3.00522 189.465 3ZM39.0327 123.976H6.06922V90.6267C6.06922 90.2256 5.90754 89.841 5.61974 89.5574C5.33195 89.2738 4.94161 89.1145 4.53461 89.1145C4.12761 89.1145 3.73727 89.2738 3.44948 89.5574C3.16168 89.841 3 90.2256 3 90.6267V125.488C3 125.889 3.16168 126.273 3.44948 126.557C3.73727 126.841 4.12761 127 4.53461 127H39.0327C39.4397 127 39.83 126.841 40.1178 126.557C40.4056 126.273 40.5673 125.889 40.5673 125.488C40.5673 125.087 40.4056 124.702 40.1178 124.419C39.83 124.135 39.4397 123.976 39.0327 123.976ZM189.465 89.1951C189.058 89.1951 188.668 89.3544 188.38 89.638C188.092 89.9216 187.931 90.3063 187.931 90.7073V123.976H154.947C154.54 123.976 154.15 124.135 153.862 124.419C153.574 124.702 153.412 125.087 153.412 125.488C153.412 125.889 153.574 126.273 153.862 126.557C154.15 126.841 154.54 127 154.947 127H189.465C189.871 126.995 190.258 126.834 190.545 126.551C190.831 126.269 190.995 125.887 191 125.488V90.6267C190.979 90.2397 190.808 89.8755 190.523 89.6092C190.237 89.3428 189.859 89.1946 189.465 89.1951Z" fill="#AAAAAA" stroke="#AAAAAA" stroke-width="6"/>
<defs>
<linearGradient id="paint0_linear_52_4051" x1="95" y1="22" x2="95" y2="58" gradientUnits="userSpaceOnUse">
<stop stop-color="#74747E"/>
<stop offset="0.0001" stop-color="#F8F8F9"/>
</linearGradient>
<linearGradient id="paint1_linear_52_4051" x1="94" y1="34" x2="94" y2="115" gradientUnits="userSpaceOnUse">
<stop stop-color="#74747E"/>
<stop offset="0.0001" stop-color="#F8F8F9"/>
</linearGradient>
<linearGradient id="paint2_linear_52_4051" x1="95" y1="47" x2="95" y2="102" gradientUnits="userSpaceOnUse">
<stop stop-color="#74747E"/>
<stop offset="0.0001" stop-color="#F8F8F9"/>
</linearGradient>
<linearGradient id="paint3_linear_52_4051" x1="94.5" y1="61" x2="94.5" y2="89" gradientUnits="userSpaceOnUse">
<stop stop-color="#74747E"/>
<stop offset="0.0001" stop-color="#F8F8F9"/>
</linearGradient>
<linearGradient id="paint4_linear_52_4051" x1="97" y1="3" x2="97" y2="127" gradientUnits="userSpaceOnUse">
<stop stop-color="#74747E"/>
<stop offset="0.0001" stop-color="#F8F8F9"/>
</linearGradient>
</defs>
</svg>
