<svg width="185" height="124" viewBox="0 0 185 124" fill="none" xmlns="http://www.w3.org/2000/svg">
<path d="M21.8004 47.16C21.5825 47.477 21.4948 47.8656 21.5553 48.2454C21.6158 48.6253 21.8199 48.9674 22.1255 49.201C22.431 49.4347 22.8146 49.542 23.1971 49.5009C23.5795 49.4598 23.9315 49.2733 24.1804 48.98C24.3804 48.72 44.4204 23.5 93.0004 23.5C141.58 23.5 161.62 48.72 161.82 48.98C161.959 49.1611 162.138 49.3076 162.342 49.4082C162.547 49.5088 162.772 49.5608 163 49.56C163.331 49.5587 163.653 49.4538 163.92 49.26C164.236 49.0183 164.442 48.6616 164.494 48.2679C164.547 47.8742 164.441 47.4758 164.2 47.16C163.36 46 143.16 20.5 93.0004 20.5C42.8404 20.5 22.6404 46 21.8004 47.16Z" fill="url(#paint0_linear_52_4051)"/>
<path d="M93.0003 36.58C51.9603 36.58 27.3403 69.42 27.3403 69.42C27.3403 69.42 52.0003 102.26 93.0003 102.26C134 102.26 158.72 69.42 158.72 69.42C158.72 69.42 134.08 36.58 93.0003 36.58ZM93.0003 94.88C87.9538 94.872 83.0229 93.3681 78.831 90.5582C74.6391 87.7484 71.3744 83.7588 69.4496 79.0937C67.5247 74.4287 67.0262 69.2977 68.0171 64.3494C69.0079 59.4011 71.4436 54.8577 75.0162 51.2934C78.5888 47.7292 83.138 45.3042 88.0886 44.325C93.0392 43.3458 98.169 43.8564 102.829 45.7922C107.49 47.7279 111.472 51.002 114.272 55.2005C117.072 59.399 118.564 64.3334 118.56 69.38C118.558 72.733 117.894 76.0526 116.608 79.1491C115.322 82.2457 113.438 85.0584 111.064 87.4265C108.691 89.7947 105.874 91.6719 102.774 92.9508C99.6745 94.2297 96.3534 94.8852 93.0003 94.88Z" fill="url(#paint1_linear_52_4051)"/>
<path d="M106.86 71.52C106.444 74.1619 105.28 76.6292 103.505 78.63C101.73 80.6308 99.4194 82.0814 96.8461 82.8102C94.2729 83.539 91.5447 83.5154 88.9844 82.7423C86.424 81.9692 84.1387 80.479 82.3988 78.4478C80.6589 76.4167 79.5372 73.9296 79.1664 71.281C78.7956 68.6323 79.1912 65.9329 80.3065 63.502C81.4217 61.0712 83.21 59.0106 85.4595 57.5642C87.7091 56.1177 90.326 55.3459 93.0004 55.34H93.7204C94.6394 53.6121 95.9899 52.1513 97.6406 51.0999C99.2913 50.0485 101.186 49.4422 103.14 49.34C100.042 47.7635 96.617 46.9347 93.1404 46.92C88.6796 46.9002 84.3135 48.2057 80.5956 50.6708C76.8778 53.1359 73.9758 56.6497 72.2578 60.7664C70.5397 64.8831 70.083 69.4173 70.9455 73.794C71.8079 78.1706 73.9508 82.1926 77.1023 85.3496C80.2538 88.5067 84.2719 90.6568 88.647 91.5271C93.0221 92.3974 97.5571 91.9487 101.677 90.238C105.797 88.5272 109.316 85.6315 111.787 81.9181C114.259 78.2047 115.572 73.8408 115.56 69.38C115.556 67.3853 115.28 65.4004 114.74 63.48C114.237 65.3884 113.246 67.1331 111.864 68.5427C110.483 69.9523 108.758 70.9783 106.86 71.52Z" fill="url(#paint2_linear_52_4051)"/>
<path d="M81.9601 69.38C81.9215 72.1013 82.8911 74.7406 84.6824 76.7895C86.4736 78.8385 88.9596 80.1521 91.6616 80.4775C94.3637 80.8028 97.0905 80.1168 99.3169 78.5516C101.543 76.9864 103.112 74.6527 103.72 72C100.719 71.9894 97.8454 70.79 95.7274 68.6645C93.6093 66.539 92.4201 63.6607 92.4201 60.66C92.4187 59.9003 92.4992 59.1426 92.6601 58.4C89.8034 58.493 87.0937 59.6882 85.0989 61.7352C83.1041 63.7822 81.9793 66.5219 81.9601 69.38Z" fill="url(#paint3_linear_52_4051)"/>
<path d="M103.78 52.24C102.127 52.24 100.51 52.7303 99.1357 53.6489C97.7609 54.5675 96.6894 55.8732 96.0566 57.4008C95.4239 58.9284 95.2583 60.6093 95.5809 62.231C95.9034 63.8526 96.6997 65.3422 97.8688 66.5114C99.038 67.6806 100.528 68.4768 102.149 68.7994C103.771 69.1219 105.452 68.9564 106.979 68.3236C108.507 67.6909 109.813 66.6194 110.731 65.2446C111.65 63.8698 112.14 62.2534 112.14 60.6C112.135 58.3844 111.252 56.2611 109.686 54.6944C108.119 53.1278 105.996 52.2453 103.78 52.24ZM2.24023 38C2.63806 38 3.01959 37.842 3.30089 37.5607C3.5822 37.2794 3.74023 36.8978 3.74023 36.5V3.5H35.9602C36.3581 3.5 36.7396 3.34197 37.0209 3.06066C37.3022 2.77936 37.4602 2.39782 37.4602 2C37.4602 1.60218 37.3022 1.22064 37.0209 0.939339C36.7396 0.658034 36.3581 0.5 35.9602 0.5H2.24023C1.84241 0.5 1.46088 0.658034 1.17957 0.939339C0.898269 1.22064 0.740234 1.60218 0.740234 2V36.58C0.755836 36.9655 0.921368 37.3297 1.20156 37.5949C1.48175 37.8602 1.85445 38.0055 2.24023 38ZM183 0.5H149.26C148.862 0.5 148.481 0.658034 148.2 0.939339C147.918 1.22064 147.76 1.60218 147.76 2C147.76 2.39782 147.918 2.77936 148.2 3.06066C148.481 3.34197 148.862 3.5 149.26 3.5H181.5V36.58C181.5 36.9778 181.658 37.3594 181.94 37.6407C182.221 37.922 182.602 38.08 183 38.08C183.398 38.08 183.78 37.922 184.061 37.6407C184.342 37.3594 184.5 36.9778 184.5 36.58V2C184.495 1.60379 184.335 1.22526 184.055 0.945068C183.775 0.664879 183.396 0.50518 183 0.5ZM35.9602 120.5H3.74023V87.42C3.74023 87.0222 3.5822 86.6406 3.30089 86.3593C3.01959 86.078 2.63806 85.92 2.24023 85.92C1.84241 85.92 1.46088 86.078 1.17957 86.3593C0.898269 86.6406 0.740234 87.0222 0.740234 87.42V122C0.740234 122.398 0.898269 122.779 1.17957 123.061C1.46088 123.342 1.84241 123.5 2.24023 123.5H35.9602C36.3581 123.5 36.7396 123.342 37.0209 123.061C37.3022 122.779 37.4602 122.398 37.4602 122C37.4602 121.602 37.3022 121.221 37.0209 120.939C36.7396 120.658 36.3581 120.5 35.9602 120.5ZM183 86C182.602 86 182.221 86.158 181.94 86.4393C181.658 86.7206 181.5 87.1022 181.5 87.5V120.5H149.26C148.862 120.5 148.481 120.658 148.2 120.939C147.918 121.221 147.76 121.602 147.76 122C147.76 122.398 147.918 122.779 148.2 123.061C148.481 123.342 148.862 123.5 149.26 123.5H183C183.396 123.495 183.775 123.335 184.055 123.055C184.335 122.775 184.495 122.396 184.5 122V87.42C184.48 87.0362 184.313 86.6749 184.034 86.4107C183.754 86.1465 183.385 85.9995 183 86Z" fill="url(#paint4_linear_52_4051)"/>
<defs>
<linearGradient id="paint0_linear_52_4051" x1="93.0221" y1="20.5" x2="93.0221" y2="49.56" gradientUnits="userSpaceOnUse">
<stop stop-color="#74747E"/>
<stop offset="1" stop-color="#F8F8F9"/>
</linearGradient>
<linearGradient id="paint1_linear_52_4051" x1="93.0303" y1="36.58" x2="93.0303" y2="102.26" gradientUnits="userSpaceOnUse">
<stop stop-color="#74747E"/>
<stop offset="1" stop-color="#F8F8F9"/>
</linearGradient>
<linearGradient id="paint2_linear_52_4051" x1="93.0405" y1="46.9198" x2="93.0405" y2="91.9598" gradientUnits="userSpaceOnUse">
<stop stop-color="#74747E"/>
<stop offset="1" stop-color="#F8F8F9"/>
</linearGradient>
<linearGradient id="paint3_linear_52_4051" x1="92.8395" y1="58.4" x2="92.8395" y2="80.5565" gradientUnits="userSpaceOnUse">
<stop stop-color="#74747E"/>
<stop offset="1" stop-color="#F8F8F9"/>
</linearGradient>
<linearGradient id="paint4_linear_52_4051" x1="92.6202" y1="0.5" x2="92.6202" y2="123.5" gradientUnits="userSpaceOnUse">
<stop stop-color="#74747E"/>
<stop offset="1" stop-color="#F8F8F9"/>
</linearGradient>
</defs>
</svg>
