<svg width="150" height="150" viewBox="0 0 100 100" fill="none" xmlns="http://www.w3.org/2000/svg">
<path d="M50 50C55.1777 50 59.375 45.8027 59.375 40.625C59.375 35.4473 55.1777 31.25 50 31.25C44.8223 31.25 40.625 35.4473 40.625 40.625C40.625 45.8027 44.8223 50 50 50Z" fill="url(#paint0_linear_305_4883)"/>
<path d="M50 46.875C53.4518 46.875 56.25 44.0768 56.25 40.625C56.25 37.1732 53.4518 34.375 50 34.375C46.5482 34.375 43.75 37.1732 43.75 40.625C43.75 44.0768 46.5482 46.875 50 46.875Z" fill="url(#paint1_linear_305_4883)"/>
<path d="M50 3.125C29.3219 3.125 12.5 19.9469 12.5 40.625C12.5 61.3031 29.3219 78.125 50 78.125C70.6781 78.125 87.5 61.3031 87.5 40.625C87.5 19.9469 70.6781 3.125 50 3.125ZM50 16.4062C51.7281 16.4062 53.125 17.8031 53.125 19.5312C53.125 21.2594 51.7281 22.6562 50 22.6562C48.275 22.6562 46.875 21.2594 46.875 19.5312C46.875 17.8031 48.275 16.4062 50 16.4062ZM50 53.125C43.1062 53.125 37.5 47.5187 37.5 40.625C37.5 33.7312 43.1062 28.125 50 28.125C56.8937 28.125 62.5 33.7312 62.5 40.625C62.5 47.5187 56.8937 53.125 50 53.125ZM67.1875 85.9375H57.8125V80.4781C55.2812 80.975 52.6719 81.25 50 81.25C47.3281 81.25 44.7188 80.975 42.1875 80.4781V85.9375H32.8125C28.5063 85.9375 25 89.4406 25 93.75C25 95.4781 26.4 96.875 28.125 96.875H71.875C73.6031 96.875 75 95.4781 75 93.75C75 89.4406 71.4969 85.9375 67.1875 85.9375Z" fill="url(#paint2_linear_305_4883)"/>
<defs>
<linearGradient id="paint0_linear_305_4883" x1="50" y1="31.25" x2="50" y2="50" gradientUnits="userSpaceOnUse">
<stop stop-color="#74747E"/>
<stop offset="1" stop-color="white"/>
</linearGradient>
<linearGradient id="paint1_linear_305_4883" x1="50" y1="34.375" x2="50" y2="46.875" gradientUnits="userSpaceOnUse">
<stop stop-color="#74747E"/>
<stop offset="1" stop-color="white"/>
</linearGradient>
<linearGradient id="paint2_linear_305_4883" x1="50" y1="3.125" x2="50" y2="96.875" gradientUnits="userSpaceOnUse">
<stop stop-color="#74747E"/>
<stop offset="1" stop-color="white"/>
</linearGradient>
</defs>
</svg>
